<svg xmlns="http://www.w3.org/2000/svg" xmlns:xlink="http://www.w3.org/1999/xlink" width="975" height="333" version="1.1" viewBox="0 0 975 333"><title>Fiber 2</title><desc>Created with Sketch.</desc><g id="Page-1" fill="none" fill-rule="evenodd" stroke="none" stroke-width="1"><g id="Group-3"><rect id="Rectangle" width="97" height="97" x="118" y="118" fill="#205475" fill-opacity=".75" rx="4" style="mix-blend-mode:multiply"/><rect id="Rectangle" width="97" height="97" x="118" y="118" fill="#56A9D5" fill-opacity=".75" rx="4" transform="translate(166.500000, 166.500000) rotate(-315.000000) translate(-166.500000, -166.500000)" style="mix-blend-mode:multiply"/><rect id="Rectangle" width="69" height="69" x="15" y="132" fill="#56A9D5" rx="9" transform="translate(49.500000, 166.500000) rotate(-315.000000) translate(-49.500000, -166.500000)" style="mix-blend-mode:multiply"/><rect id="Rectangle" width="69" height="69" x="132" y="15" fill="#56A9D5" rx="9" transform="translate(166.500000, 49.500000) rotate(-315.000000) translate(-166.500000, -49.500000)" style="mix-blend-mode:multiply"/><rect id="Rectangle" width="69" height="69" x="249" y="132" fill="#56A9D5" rx="9" transform="translate(283.500000, 166.500000) rotate(-315.000000) translate(-283.500000, -166.500000)" style="mix-blend-mode:multiply"/><rect id="Rectangle" width="69" height="69" x="132" y="249" fill="#56A9D5" rx="9" transform="translate(166.500000, 283.500000) rotate(-315.000000) translate(-166.500000, -283.500000)" style="mix-blend-mode:multiply"/><rect id="Rectangle" width="69" height="69" x="49" y="215" fill="#416D89" rx="9" style="mix-blend-mode:multiply"/><rect id="Rectangle" width="69" height="69" x="49" y="49" fill="#416D89" rx="9" style="mix-blend-mode:multiply"/><rect id="Rectangle" width="69" height="69" x="215" y="49" fill="#416D89" rx="9" style="mix-blend-mode:multiply"/><rect id="Rectangle" width="69" height="69" x="215" y="215" fill="#416D89" rx="9" style="mix-blend-mode:multiply"/></g><text id="Fiber" fill="#393737" font-family="Lato-Regular, Lato" font-size="252" font-weight="normal"><tspan x="406" y="259">Fiber</tspan></text></g></svg>